<svg xmlns="http://www.w3.org/2000/svg" xmlns:xlink="http://www.w3.org/1999/xlink" preserveAspectRatio="xMidYMid" width="512" height="512" viewBox="0 0 512 512">
  <defs>
    <style>
      .cls-1 {
        fill: #868e97;
        fill-rule: evenodd;
      }
    </style>
  </defs>
  <path d="M263.401,312.401 C263.001,309.202 263.001,306.002 263.001,302.802 C263.001,282.002 271.001,264.402 288.200,242.403 C309.400,216.003 326.600,193.203 326.600,163.204 C326.600,129.204 304.200,97.605 254.601,97.605 C232.601,97.605 208.602,104.805 194.602,114.804 L204.202,139.204 C215.002,130.804 232.201,125.204 247.801,125.204 C276.601,125.204 291.800,142.004 291.800,166.804 C291.800,188.803 280.601,206.803 259.401,232.403 C240.201,256.802 232.201,280.802 232.201,303.202 C232.201,308.002 232.201,309.602 233.801,324.401 L263.801,324.401 L263.401,312.401 ZM248.201,412.800 C262.601,412.800 271.801,401.600 271.801,387.600 C271.801,372.801 262.601,362.001 248.201,362.001 C234.201,362.001 225.001,372.801 224.601,387.600 C224.601,400.800 233.001,412.800 248.201,412.800 Z" class="cls-1"/>
</svg>
